<svg width="192" height="192" version="1.1" xmlns="http://www.w3.org/2000/svg" desc="Created with imagetracer.js version 1.2.6" ><path fill="rgb(1,1,2)" stroke="rgb(1,1,2)" stroke-width="1" opacity="0.0196078431372549" d="M 0 0 L 192 0 L 192 192 L 0 192 L 0 0 Z M 24 3 L 10 10 L 5 18 L 3 24 L 3 169 L 10 182 L 18 187 L 24 189 L 169 189 L 182 182 L 187 175 L 189 169 L 189 24 L 182 10 L 175 5 L 169 3 L 24 3 Z " /><path fill="rgb(41,42,45)" stroke="rgb(41,42,45)" stroke-width="1" opacity="0.996078431372549" d="M 23.5 3 L 27 3.5 L 23.5 4 L 23.5 3 Z " /><path fill="rgb(41,42,45)" stroke="rgb(41,42,45)" stroke-width="1" opacity="0.996078431372549" d="M 165.5 3 L 169 3.5 L 165.5 4 L 165.5 3 Z " /><path fill="rgb(41,42,45)" stroke="rgb(41,42,45)" stroke-width="1" opacity="0.996078431372549" d="M 173.5 5 L 176 6.5 L 174.5 6 L 173.5 5 Z " /><path fill="rgb(41,42,45)" stroke="rgb(41,42,45)" stroke-width="1" opacity="0.996078431372549" d="M 14.5 7 L 12.5 10 L 14.5 7 Z " /><path fill="rgb(41,42,45)" stroke="rgb(41,42,45)" stroke-width="1" opacity="0.996078431372549" d="M 177.5 7 L 179.5 10 L 177.5 7 Z " /><path fill="rgb(41,42,45)" stroke="rgb(41,42,45)" stroke-width="1" opacity="0.996078431372549" d="M 9.5 12 L 7.5 15 L 9.5 12 Z " /><path fill="rgb(41,42,45)" stroke="rgb(41,42,45)" stroke-width="1" opacity="0.996078431372549" d="M 182.5 12 L 184.5 15 L 182.5 12 Z " /><path fill="rgb(41,42,45)" stroke="rgb(41,42,45)" stroke-width="1" opacity="0.996078431372549" d="M 6.5 16 L 6 17.5 L 5.5 19 L 5 17.5 L 6.5 16 Z " /><path fill="rgb(41,42,45)" stroke="rgb(41,42,45)" stroke-width="1" opacity="0.996078431372549" d="M 3.5 23 L 4 26.5 L 3 26.5 L 3.5 23 Z " /><path fill="rgb(41,42,45)" stroke="rgb(41,42,45)" stroke-width="1" opacity="0.996078431372549" d="M 188.5 23 L 189 26.5 L 188 26.5 L 188.5 23 Z " /><path fill="rgb(41,42,45)" stroke="rgb(41,42,45)" stroke-width="1" opacity="0.996078431372549" d="M 3.5 165 L 4 168.5 L 3 168.5 L 3.5 165 Z " /><path fill="rgb(41,42,45)" stroke="rgb(41,42,45)" stroke-width="1" opacity="0.996078431372549" d="M 188.5 165 L 189 168.5 L 188 168.5 L 188.5 165 Z " /><path fill="rgb(41,42,45)" stroke="rgb(41,42,45)" stroke-width="1" opacity="0.996078431372549" d="M 186.5 173 L 187 174.5 L 185 175.5 L 186.5 173 Z " /><path fill="rgb(41,42,45)" stroke="rgb(41,42,45)" stroke-width="1" opacity="0.996078431372549" d="M 7.5 177 L 9.5 180 L 7.5 177 Z " /><path fill="rgb(41,42,45)" stroke="rgb(41,42,45)" stroke-width="1" opacity="0.996078431372549" d="M 184.5 177 L 182.5 180 L 184.5 177 Z " /><path fill="rgb(41,42,45)" stroke="rgb(41,42,45)" stroke-width="1" opacity="0.996078431372549" d="M 12.5 182 L 14.5 185 L 12.5 182 Z " /><path fill="rgb(41,42,45)" stroke="rgb(41,42,45)" stroke-width="1" opacity="0.996078431372549" d="M 179.5 182 L 177.5 185 L 179.5 182 Z " /><path fill="rgb(41,42,45)" stroke="rgb(41,42,45)" stroke-width="1" opacity="0.996078431372549" d="M 16.5 185 L 19 186.5 L 17.5 187 L 16.5 185 Z " /><path fill="rgb(41,42,45)" stroke="rgb(41,42,45)" stroke-width="1" opacity="0.996078431372549" d="M 23.5 188 L 27 188.5 L 23.5 189 L 23.5 188 Z " /><path fill="rgb(41,42,45)" stroke="rgb(41,42,45)" stroke-width="1" opacity="0.996078431372549" d="M 165.5 188 L 169 188.5 L 165.5 189 L 165.5 188 Z " /><path fill="rgb(249,232,232)" stroke="rgb(249,232,232)" stroke-width="1" opacity="1" d="M 41.5 44 L 95 95.5 L 93.5 98 L 41.5 146 L 29 132.5 L 68 96.5 L 68 94.5 L 51.5 78 L 29 56.5 L 41.5 44 Z " /><path fill="rgb(41,42,45)" stroke="rgb(41,42,45)" stroke-width="1" opacity="1" d="M 27.5 3 L 164.5 3 L 172.5 5 L 182 11.5 L 187 19.5 L 189 27.5 L 189 164.5 L 187 172.5 L 180.5 182 L 172.5 187 L 164.5 189 L 27.5 189 L 19.5 187 L 10 180.5 L 5 172.5 L 3 164.5 L 3 27.5 L 5 19.5 L 11.5 10 L 19.5 5 L 27.5 3 Z M 115 43 L 115 149 L 163 149 L 163 43 L 115 43 Z M 42 44 L 29 57 L 62 88 L 68 96 L 29 133 L 42 146 L 90 102 L 95 97 L 95 95 L 49 49 L 42 44 Z " /><path fill="rgb(0,138,230)" stroke="rgb(0,138,230)" stroke-width="1" opacity="1" d="M 115 43 L 163 43 L 163 149 L 115 149 L 115 43 Z " /><path fill="rgb(0,138,230)" stroke="rgb(0,138,230)" stroke-width="1" opacity="1" d="M 48.5 49 L 57.5 59 L 48.5 49 Z " /><path fill="rgb(0,138,230)" stroke="rgb(0,138,230)" stroke-width="1" opacity="1" d="M 51.5 78 L 60.5 88 L 51.5 78 Z " /><path fill="rgb(0,138,230)" stroke="rgb(0,138,230)" stroke-width="1" opacity="1" d="M 87.5 87 L 94.5 95 L 87.5 87 Z " /><path fill="rgb(0,138,230)" stroke="rgb(0,138,230)" stroke-width="1" opacity="1" d="M 67.5 96 L 66.5 98 L 67.5 96 Z " /><path fill="rgb(0,138,230)" stroke="rgb(0,138,230)" stroke-width="1" opacity="1" d="M 92.5 98 L 89.5 102 L 92.5 98 Z " /><path fill="rgb(0,138,230)" stroke="rgb(0,138,230)" stroke-width="1" opacity="1" d="M 53.5 109 L 50.5 113 L 53.5 109 Z " /><path fill="rgb(0,138,230)" stroke="rgb(0,138,230)" stroke-width="1" opacity="1" d="M 75.5 114 L 72.5 118 L 75.5 114 Z " /><path fill="rgb(0,138,230)" stroke="rgb(0,138,230)" stroke-width="1" opacity="1" d="M 36.5 125 L 33.5 129 L 36.5 125 Z " /><path fill="rgb(0,138,230)" stroke="rgb(0,138,230)" stroke-width="1" opacity="1" d="M 58.5 130 L 56.5 133 L 58.5 130 Z " /><path fill="rgb(0,138,230)" stroke="rgb(0,138,230)" stroke-width="1" opacity="1" d="M 36.5 140 L 39.5 144 L 36.5 140 Z " /></svg>